<?xml version="1.0" encoding="utf-8"?>
<!-- Generator: Adobe Illustrator 16.0.0, SVG Export Plug-In . SVG Version: 6.00 Build 0)  -->
<!DOCTYPE svg PUBLIC "-//W3C//DTD SVG 1.1//EN" "http://www.w3.org/Graphics/SVG/1.1/DTD/svg11.dtd">
<svg version="1.1" id="Layer_1" xmlns="http://www.w3.org/2000/svg" xmlns:xlink="http://www.w3.org/1999/xlink" x="0px" y="0px"
	 width="126px" height="126px" viewBox="0 0 126 126" enable-background="new 0 0 126 126" xml:space="preserve">
<g>
	<path d="M96.886,22.237H29.114c-5.448,0-9.881,4.433-9.881,9.881v92.879h9.881V32.118h67.771v92.879h9.881V32.118
		C106.767,26.67,102.334,22.237,96.886,22.237z M58.278,30.64c-1.819,0-3.294-1.475-3.294-3.294c0-1.82,1.476-3.295,3.294-3.295
		c1.82,0,3.294,1.475,3.294,3.295C61.572,29.165,60.098,30.64,58.278,30.64z M67.722,30.64c-1.82,0-3.294-1.475-3.294-3.294
		c0-1.82,1.474-3.295,3.294-3.295c1.819,0,3.294,1.475,3.294,3.295C71.017,29.165,69.541,30.64,67.722,30.64z"/>
	<path d="M56.864,19.803L56.175,21.9h13.649l-0.689-2.098H56.864z M59.005,21.513h-2.242l0.434-1.322h3.129
		C59.886,20.631,59.446,21.071,59.005,21.513z"/>
	<path d="M62.961,7.135c-3.005,0-5.44,2.436-5.44,5.44v6.683h10.958v-6.683c0-3.005-2.436-5.44-5.44-5.44H62.961z M67.43,12.73
		c0,0.258-0.209,0.466-0.466,0.466c-0.258,0-0.466-0.208-0.466-0.466c0-1.886-1.534-3.42-3.419-3.42H63
		c-0.258,0-0.466-0.208-0.466-0.466S62.742,8.379,63,8.379h0.078C65.478,8.379,67.43,10.331,67.43,12.73z"/>
	<path d="M53.038,10.573l2.565,0.515c0.48,0.096,0.947-0.215,1.043-0.694c0.097-0.48-0.215-0.947-0.694-1.043l-2.565-0.516
		c-0.48-0.097-0.947,0.216-1.044,0.695c-0.021,0.104-0.022,0.208-0.007,0.308C52.39,10.195,52.662,10.498,53.038,10.573z"/>
	<path d="M56.058,4.449l1.634,2.044c0.306,0.382,0.863,0.444,1.246,0.138c0.382-0.305,0.444-0.862,0.139-1.245l-1.634-2.043
		c-0.306-0.382-0.863-0.444-1.246-0.139c-0.257,0.205-0.369,0.523-0.323,0.827C55.896,4.18,55.957,4.324,56.058,4.449z"/>
	<path d="M62.255,4.471c0.064,0.418,0.419,0.742,0.855,0.752c0.489,0.012,0.896-0.376,0.907-0.865l-0.006-2.615
		c0.012-0.489-0.375-0.896-0.865-0.907C62.657,0.823,62.251,1.211,62.24,1.7l0.006,2.616C62.245,4.368,62.248,4.421,62.255,4.471z"
		/>
	<path d="M68.464,6.746l1.728-1.964c0.323-0.367,0.288-0.927-0.08-1.25c-0.367-0.323-0.927-0.288-1.25,0.08l-1.728,1.963
		c-0.181,0.205-0.249,0.47-0.211,0.72c0.03,0.198,0.128,0.389,0.291,0.531C67.581,7.149,68.141,7.113,68.464,6.746z"/>
	<path d="M69.326,10.691c0.073,0.484,0.525,0.816,1.009,0.743l2.586-0.394c0.484-0.073,0.816-0.526,0.743-1.01
		c-0.074-0.484-0.525-0.816-1.01-0.742l-2.586,0.394C69.584,9.756,69.252,10.208,69.326,10.691z"/>
	<circle cx="63.077" cy="47.739" r="8.937"/>
	<path d="M78.467,75.117c-2.227-6.354-4.34-12.373-8.855-15.68c-1.218-1.086-2.744-1.86-4.309-2.243l-2.226,2.24l-2.159-2.266
		c-0.007,0.003-0.015,0.003-0.021,0.003c-1.278,0.307-2.528,0.878-3.611,1.664c-0.009,0.007-0.019,0.009-0.028,0.014
		c-5.125,3.145-7.36,9.52-9.726,16.268c-0.903,2.574-1.835,5.234-2.949,7.786c-0.767,1.756,0.035,3.802,1.791,4.568
		c0.453,0.197,0.923,0.289,1.387,0.289c1.337,0,2.612-0.777,3.181-2.082c1.154-2.643,2.09-5.281,2.989-7.841v6.85
		c0,0.936,0.181,1.805,0.499,2.605c-0.024,0.181-0.042,0.361-0.042,0.548l0.003,33.225c0,2.264,1.835,4.1,4.101,4.1
		c2.264,0,4.1-1.836,4.1-4.101l-0.002-28.512c0.162,0.006,0.324,0.02,0.488,0.02c0.032,0,0.064-0.003,0.096-0.003l-0.001,28.495
		c0,2.265,1.836,4.101,4.1,4.101c0,0,0,0,0,0c2.264,0,4.1-1.836,4.1-4.101l0.001-33.019c0.537-0.996,0.85-2.122,0.85-3.358
		l-0.042-6.847c0.853,2.426,1.787,5.346,2.876,7.838c0.569,1.307,1.844,2.082,3.181,2.082c0.464,0,0.935-0.092,1.387-0.289
		c1.756-0.767,2.558-2.813,1.791-4.568C80.302,80.352,79.37,77.691,78.467,75.117z M63.099,77.122h-0.042l-2.155-2.949l2.155-14.407
		h0.042l2.154,14.407L63.099,77.122z"/>
</g>
</svg>
